Sinister.2012.DVDRip.x264.AAC-Acesn8s

General
Format                                   : MPEG-4
File size                                : 1 GB
Duration                                 : 1h 45mn
Overall bit rate mode                    : Variable
Overall bit rate                         : 1 361 Kbps

Video
ID                                       : 1
Format                                   : AVC
Format/Info                              : Advanced Video Codec
Format profile                           : Main@L2.1
Format settings, CABAC                   : Yes
Format settings, ReFrames                : 4 frames
Codec ID                                 : avc1
Codec ID/Info                            : Advanced Video Coding
Duration                                 : 1h 45mn
Bit rate mode                            : Variable
Bit rate                                 : 1 167 Kbps
Width                                    : 640 pixels
Height                                   : 272 pixels
Display aspect ratio                     : 2.35:1
Frame rate mode                          : Constant
Frame rate                               : 25.000 fps
Color space                              : YUV
Chroma subsampling                       : 4:2:0
Bit depth                                : 8 bits
Scan type                                : Progressive
Bits/(Pixel*Frame)                       : 0.268
Stream size                              : 876 MiB (86%)
Writing library                          : x264 core 112

Audio
ID                                       : 2
Format                                   : AAC
Format/Info                              : Advanced Audio Codec
Format profile                           : LC
Codec ID                                 : 40
Duration                                 : 1h 45mn
Bit rate mode                            : Variable
Bit rate                                 : 192 Kbps
Maximum bit rate                         : 310 Kbps
Channel(s)                               : 2 channels
Channel positions                        : Front: L R
Sampling rate                            : 48.0 KHz
Compression mode                         : Lossy
Delay relative to video                  : 80ms
Stream size                              : 144 MiB (14%)

Source                                   : PAL DVDR 

IMDB: http://www.imdb.com/title/tt1922777/

Cast: Ethan Hawke, Juliet Rylance and James Ransone 

Plot: A true-crime writer finds a cache of 8mm "snuff" films that suggest the murder he is currently researching is the work of a serial killer whose career dates back to the 1960s. 


Screens: 
 
http://www.shotpix.com/images/32225848973331445072.jpg
 
http://www.shotpix.com/images/12333448474218269037.jpg
 
http://www.shotpix.com/images/97416797936818694051.jpg
 
http://www.shotpix.com/images/10272937923787676508.jpg
 
http://www.shotpix.com/images/51228263198304467912.jpg
 
http://www.shotpix.com/images/96717701918973440827.jpg